<?xml version="1.0" encoding="iso-8859-1"?>
<!-- Generator: Adobe Illustrator 19.0.0, SVG Export Plug-In . SVG Version: 6.00 Build 0)  -->
<svg version="1.1" id="Capa_1" xmlns="http://www.w3.org/2000/svg" xmlns:xlink="http://www.w3.org/1999/xlink" x="0px" y="0px"
	 viewBox="0 0 512 512" style="enable-background:new 0 0 512 512;" xml:space="preserve">
<polygon style="fill:#FBDF65;" points="135.25,452 30.25,452 30.25,241 135.5,241 135.5,271 60.25,271 60.25,422 135.25,422 "/>
<polygon style="fill:#FABE5C;" points="481.75,271 376.5,271 376.5,241 451.75,241 451.75,90 376.75,90 376.75,60 481.75,60 "/>
<path style="fill:#3E575F;" d="M45.25,301.5l-20,45l20,45c24.853,0,45-20.147,45-45S70.103,301.5,45.25,301.5z"/>
<g>
	<path style="fill:#5C6F74;" d="M0.25,346.5c0,24.853,20.147,45,45,45v-90C20.397,301.5,0.25,321.647,0.25,346.5z"/>
	<polygon style="fill:#5C6F74;" points="256,362 196,437 256,512 392.25,512 392.25,362 	"/>
</g>
<rect x="120.25" y="362" style="fill:#98A09F;" width="135.75" height="150"/>
<rect x="241.25" y="422" style="fill:#E7E7E6;" width="30" height="30"/>
<rect x="181.25" y="422" style="fill:#FFFFFF;" width="30" height="30"/>
<rect x="301.25" y="422" style="fill:#E7E7E6;" width="30" height="30"/>
<polygon style="fill:#5C6F74;" points="256,181 196,256 256,331 392.25,331 392.25,181 "/>
<rect x="120.25" y="181" style="fill:#98A09F;" width="135.75" height="150"/>
<rect x="241.25" y="241" style="fill:#E7E7E6;" width="30" height="30"/>
<rect x="181.25" y="241" style="fill:#FFFFFF;" width="30" height="30"/>
<rect x="301.25" y="241" style="fill:#E7E7E6;" width="30" height="30"/>
<polygon style="fill:#5C6F74;" points="256,0 196,75 256,150 392.25,150 392.25,0 "/>
<rect x="120.25" style="fill:#98A09F;" width="135.75" height="150"/>
<rect x="241.25" y="60" style="fill:#E7E7E6;" width="30" height="30"/>
<rect x="181.25" y="60" style="fill:#FFFFFF;" width="30" height="30"/>
<rect x="301.25" y="60" style="fill:#E7E7E6;" width="30" height="30"/>
<path style="fill:#203F49;" d="M466.75,120.5l-20,45l20,45c24.853,0,45-20.147,45-45S491.603,120.5,466.75,120.5z"/>
<path style="fill:#3E575F;" d="M421.75,165.5c0,24.853,20.147,45,45,45v-90C441.897,120.5,421.75,140.647,421.75,165.5z"/>
<g>
</g>
<g>
</g>
<g>
</g>
<g>
</g>
<g>
</g>
<g>
</g>
<g>
</g>
<g>
</g>
<g>
</g>
<g>
</g>
<g>
</g>
<g>
</g>
<g>
</g>
<g>
</g>
<g>
</g>
</svg>
